<svg xmlns="http://www.w3.org/2000/svg" xmlns:xlink="http://www.w3.org/1999/xlink" version="1.1" x="0px" y="0px" viewBox="0 0 80 100" enable-background="new 0 0 80 80" xml:space="preserve"><g><path fill="#000000" d="M51,67H10V26h41V67z M12,65h37V28H12V65z"/></g><g><path fill="#000000" d="M68,50H27V9h41V50z M29,48h37V11H29V48z"/></g><g><rect x="18.5" y="6.5" transform="matrix(0.7071 0.7071 -0.7071 0.7071 18.7929 -8.3701)" fill="#000000" width="2" height="24"/></g><g><rect x="57.5" y="6.5" transform="matrix(0.7071 0.7071 -0.7071 0.7071 30.2157 -35.9472)" fill="#000000" width="2" height="24"/></g><g><rect x="57.5" y="45.5" transform="matrix(0.7071 0.7071 -0.7071 0.7071 57.7929 -24.5244)" fill="#000000" width="2" height="24"/></g><g><rect x="18.5" y="45.5" transform="matrix(0.7071 0.7071 -0.7071 0.7071 46.3701 3.0528)" fill="#000000" width="2" height="24"/></g><text x="0" y="95" fill="#000000" font-size="5px" font-weight="bold" font-family="'Helvetica Neue', Helvetica, Arial-Unicode, Arial, Sans-serif">Created by Yaroslav Samoylov</text><text x="0" y="100" fill="#000000" font-size="5px" font-weight="bold" font-family="'Helvetica Neue', Helvetica, Arial-Unicode, Arial, Sans-serif">from the Noun Project</text></svg>